<svg xmlns="http://www.w3.org/2000/svg" viewBox="0 0 200.9 200"><style>.st0{fill:none;stroke:#494f54;stroke-width:.25;stroke-miterlimit:10}.st1{opacity:.59;fill:url(#SVGID_1_)}.st2{opacity:.71}.st2,.st3{fill:#393c40}.st4{fill:url(#SVGID_2_)}.st4,.st5,.st6{opacity:.59}.st5{fill:url(#SVGID_3_)}.st6{fill:url(#SVGID_4_)}.st7{fill:url(#SVGID_5_)}.st8{fill:none;stroke:#4cabd7;stroke-linecap:round;stroke-miterlimit:10}.st9{stroke-width:.5}.st10{fill:none;stroke:#494f54}.st10,.st11,.st9{stroke-miterlimit:10}.st9{fill:none;stroke:#494f54}.st11{opacity:.49;fill:#fff;stroke:#000}.st12{fill:#4cabd7}.st13{fill:#447f93}.st14{opacity:.59;fill:url(#SVGID_6_)}.st15,.st16{opacity:.59;fill:url(#SVGID_7_)}.st16{fill:url(#SVGID_8_)}.st17,.st18{opacity:.59;fill:#a2a1a3}.st18{fill:#696b70}.st19{fill:url(#SVGID_9_)}.st20{opacity:.59;fill:url(#SVGID_10_)}.st21,.st22{opacity:.59;fill:url(#SVGID_11_)}.st22{fill:url(#SVGID_12_)}.st23{fill:url(#SVGID_13_)}.st24{opacity:.59;fill:url(#SVGID_14_)}.st25,.st26{opacity:.59;fill:url(#SVGID_15_)}.st26{fill:url(#SVGID_16_)}.st27{fill:url(#SVGID_17_)}.st28{opacity:.59;fill:url(#SVGID_18_)}.st29,.st30{opacity:.59;fill:url(#SVGID_19_)}.st30{fill:url(#SVGID_20_)}.st31{fill:url(#SVGID_21_)}.st32{opacity:.71;clip-path:url(#SVGID_25_);fill:#393c40}.st33{fill:none;stroke:#fff;stroke-miterlimit:10}.st33,.st34{clip-path:url(#SVGID_25_)}.st35{fill:none;stroke:#fff;stroke-width:.75;stroke-miterlimit:10}.st36{fill:#fff}.st37,.st38{clip-path:url(#SVGID_25_);fill:#393c40}.st38{opacity:.71;clip-path:url(#SVGID_31_)}.st39{fill:none;stroke:#fff;stroke-miterlimit:10}.st39,.st40,.st41{clip-path:url(#SVGID_31_)}.st41,.st42{fill:#393c40}.st42{opacity:.71;clip-path:url(#SVGID_37_)}.st43{fill:none;stroke:#fff;stroke-miterlimit:10}.st43,.st44,.st45{clip-path:url(#SVGID_37_)}.st45,.st46{fill:#393c40}.st46{opacity:.71;clip-path:url(#SVGID_43_)}.st47{fill:none;stroke:#fff;stroke-miterlimit:10}.st47,.st48,.st49{clip-path:url(#SVGID_43_)}.st49{fill:#393c40}</style><g id="Text"><path class="st3" d="M100.4 200C45.3 200 .4 155.1.4 100S45.2 0 100.4 0c55.1 0 100 44.9 100 100s-44.9 100-100 100zm0-188.3C51.6 11.7 12 51.3 12 100s39.6 88.3 88.3 88.3 88.3-39.6 88.3-88.3-39.5-88.3-88.2-88.3z"/><path class="st3" d="M82.9 136.9c-1.5 0-3-.6-4.1-1.7l-29.1-29.1c-2.3-2.3-2.3-6 0-8.2 2.3-2.3 6-2.3 8.2 0l29.1 29c2.3 2.3 2.3 6 0 8.2a5.54 5.54 0 0 1-4.1 1.8z"/><path class="st3" d="M82.9 136.9c-1.5 0-3-.6-4.1-1.7-2.3-2.3-2.3-6 0-8.2l66-66c2.3-2.3 6-2.3 8.2 0 2.3 2.3 2.3 6 0 8.2l-66 66c-1.1 1.1-2.6 1.7-4.1 1.7z"/></g></svg>