<svg xmlns="http://www.w3.org/2000/svg" viewBox="0 0 200.9 200"><style>.st0{fill:none;stroke:#494f54;stroke-width:.25;stroke-miterlimit:10}.st1{opacity:.59;fill:url(#SVGID_1_)}.st2{opacity:.71}.st2,.st3{fill:#393c40}.st4{fill:url(#SVGID_2_)}.st4,.st5,.st6{opacity:.59}.st5{fill:url(#SVGID_3_)}.st6{fill:url(#SVGID_4_)}.st7{fill:url(#SVGID_5_)}.st8{fill:none;stroke:#4cabd7;stroke-linecap:round;stroke-miterlimit:10}.st9{stroke-width:.5}.st10{fill:none;stroke:#494f54}.st10,.st11,.st9{stroke-miterlimit:10}.st9{fill:none;stroke:#494f54}.st11{opacity:.49;fill:#fff;stroke:#000}.st12{fill:#4cabd7}.st13{fill:#447f93}.st14{opacity:.59;fill:url(#SVGID_6_)}.st15,.st16{opacity:.59;fill:url(#SVGID_7_)}.st16{fill:url(#SVGID_8_)}.st17,.st18{opacity:.59;fill:#a2a1a3}.st18{fill:#696b70}.st19{fill:url(#SVGID_9_)}.st20{opacity:.59;fill:url(#SVGID_10_)}.st21,.st22{opacity:.59;fill:url(#SVGID_11_)}.st22{fill:url(#SVGID_12_)}.st23{fill:url(#SVGID_13_)}.st24{opacity:.59;fill:url(#SVGID_14_)}.st25,.st26{opacity:.59;fill:url(#SVGID_15_)}.st26{fill:url(#SVGID_16_)}.st27{fill:url(#SVGID_17_)}.st28{opacity:.59;fill:url(#SVGID_18_)}.st29,.st30{opacity:.59;fill:url(#SVGID_19_)}.st30{fill:url(#SVGID_20_)}.st31{fill:url(#SVGID_21_)}.st32{opacity:.71;clip-path:url(#SVGID_25_);fill:#393c40}.st33{fill:none;stroke:#fff;stroke-miterlimit:10}.st33,.st34{clip-path:url(#SVGID_25_)}.st35{fill:none;stroke:#fff;stroke-width:.75;stroke-miterlimit:10}.st36{fill:#fff}.st37,.st38{clip-path:url(#SVGID_25_);fill:#393c40}.st38{opacity:.71;clip-path:url(#SVGID_31_)}.st39{fill:none;stroke:#fff;stroke-miterlimit:10}.st39,.st40,.st41{clip-path:url(#SVGID_31_)}.st41,.st42{fill:#393c40}.st42{opacity:.71;clip-path:url(#SVGID_37_)}.st43{fill:none;stroke:#fff;stroke-miterlimit:10}.st43,.st44,.st45{clip-path:url(#SVGID_37_)}.st45,.st46{fill:#393c40}.st46{opacity:.71;clip-path:url(#SVGID_43_)}.st47{fill:none;stroke:#fff;stroke-miterlimit:10}.st47,.st48,.st49{clip-path:url(#SVGID_43_)}.st49{fill:#393c40}</style><path class="st36" d="M101.2 178.6c-2.1 0-4-1.4-4.5-3.5l-17.2-63.4-16.2 30.2c-.9 1.7-2.8 2.7-4.7 2.4-1.9-.3-3.5-1.7-3.9-3.5l-6.9-29.1h-43c-2.6 0-4.7-2.1-4.7-4.7s2.1-4.7 4.7-4.7h46.7c2.2 0 4 1.5 4.5 3.6l4.9 20.8 16-29.7c.9-1.7 2.8-2.6 4.6-2.4 1.9.2 3.5 1.6 4 3.4l13.7 50.6 13-123.1c.2-2.4 2.2-4.1 4.6-4.2h.1c2.3 0 4.3 1.7 4.6 4l10.4 76.9h25.5c2.6 0 4.7 2.1 4.7 4.7s-2.1 4.7-4.7 4.7h-29.6c-2.3 0-4.3-1.7-4.6-4l-5.7-42.4L106 174.4c-.2 2.2-2 4-4.3 4.2h-.5zm95-66.9h-21.8c-2.6 0-4.7-2.1-4.7-4.7s2.1-4.7 4.7-4.7h21.8c2.6 0 4.7 2.1 4.7 4.7s-2.1 4.7-4.7 4.7z" id="Text"/></svg>