<svg xmlns="http://www.w3.org/2000/svg" viewBox="0 0 200.9 200"><style>.st0{fill:none;stroke:#494f54;stroke-width:.25;stroke-miterlimit:10}.st1{opacity:.59;fill:url(#SVGID_1_)}.st2{opacity:.71}.st2,.st3{fill:#393c40}.st4{fill:url(#SVGID_2_)}.st4,.st5,.st6{opacity:.59}.st5{fill:url(#SVGID_3_)}.st6{fill:url(#SVGID_4_)}.st7{fill:url(#SVGID_5_)}.st8{fill:none;stroke:#4cabd7;stroke-linecap:round;stroke-miterlimit:10}.st9{stroke-width:.5}.st10{fill:none;stroke:#494f54}.st10,.st11,.st9{stroke-miterlimit:10}.st9{fill:none;stroke:#494f54}.st11{opacity:.49;fill:#fff;stroke:#000}.st12{fill:#4cabd7}.st13{fill:#447f93}.st14{opacity:.59;fill:url(#SVGID_6_)}.st15,.st16{opacity:.59;fill:url(#SVGID_7_)}.st16{fill:url(#SVGID_8_)}.st17,.st18{opacity:.59;fill:#a2a1a3}.st18{fill:#696b70}.st19{fill:url(#SVGID_9_)}.st20{opacity:.59;fill:url(#SVGID_10_)}.st21,.st22{opacity:.59;fill:url(#SVGID_11_)}.st22{fill:url(#SVGID_12_)}.st23{fill:url(#SVGID_13_)}.st24{opacity:.59;fill:url(#SVGID_14_)}.st25,.st26{opacity:.59;fill:url(#SVGID_15_)}.st26{fill:url(#SVGID_16_)}.st27{fill:url(#SVGID_17_)}.st28{opacity:.59;fill:url(#SVGID_18_)}.st29,.st30{opacity:.59;fill:url(#SVGID_19_)}.st30{fill:url(#SVGID_20_)}.st31{fill:url(#SVGID_21_)}.st32{opacity:.71;clip-path:url(#SVGID_25_);fill:#393c40}.st33{fill:none;stroke:#fff;stroke-miterlimit:10}.st33,.st34{clip-path:url(#SVGID_25_)}.st35{fill:none;stroke:#fff;stroke-width:.75;stroke-miterlimit:10}.st36{fill:#fff}.st37,.st38{clip-path:url(#SVGID_25_);fill:#393c40}.st38{opacity:.71;clip-path:url(#SVGID_31_)}.st39{fill:none;stroke:#fff;stroke-miterlimit:10}.st39,.st40,.st41{clip-path:url(#SVGID_31_)}.st41,.st42{fill:#393c40}.st42{opacity:.71;clip-path:url(#SVGID_37_)}.st43{fill:none;stroke:#fff;stroke-miterlimit:10}.st43,.st44,.st45{clip-path:url(#SVGID_37_)}.st45,.st46{fill:#393c40}.st46{opacity:.71;clip-path:url(#SVGID_43_)}.st47{fill:none;stroke:#fff;stroke-miterlimit:10}.st47,.st48,.st49{clip-path:url(#SVGID_43_)}.st49{fill:#393c40}</style><g id="Text"><path class="st12" d="M60.9 51.4c-10.4-.2-18.6-8.9-18.4-19.3s8.9-18.6 19.3-18.4 18.6 9 18.3 19.3c-.2 10.4-8.9 18.7-19.2 18.4zm.7-29.1c-5.7-.1-10.4 4.4-10.5 10s4.4 10.4 10 10.5c5.7.1 10.4-4.4 10.5-10 .1-5.6-4.4-10.3-10-10.5zm57.8 15.1c-8.5-.2-15.2-7.3-15-15.8.2-8.5 7.3-15.2 15.8-15s15.2 7.3 15 15.8-7.3 15.2-15.8 15zm.5-22.2c-3.8-.1-6.9 2.9-7 6.7-.1 3.8 2.9 6.9 6.7 7s6.9-2.9 7-6.7-2.9-6.9-6.7-7zm-104 57.4C9.3 72.4 4 66.9 4.2 60.3s5.7-11.8 12.3-11.7c6.6.2 11.8 5.7 11.7 12.3s-5.7 11.8-12.3 11.7zm.4-15.4c-1.9 0-3.5 1.5-3.5 3.3 0 1.9 1.5 3.5 3.3 3.5 1.9 0 3.5-1.5 3.5-3.3 0-1.9-1.5-3.5-3.3-3.5zm3.4 106.1C8.9 163.1.3 154 .5 143.2c.3-10.8 9.3-19.5 20.1-19.2s19.5 9.3 19.2 20.1c-.2 10.9-9.2 19.5-20.1 19.2zm.7-30.7c-6.1-.1-11.2 4.7-11.4 10.8-.1 6.1 4.7 11.2 10.8 11.4 6.1.1 11.2-4.7 11.4-10.8.2-6.2-4.6-11.3-10.8-11.4zm54.3 21.8c-1.4 0-2.8-.3-4.1-.9-2.7-1.2-4.8-3.3-5.9-6.1-1.1-2.8-1-5.8.1-8.5 2.4-5.6 9-8.2 14.6-5.8 2.7 1.2 4.8 3.3 5.9 6.1s1 5.8-.1 8.5c-1.9 4.3-6.1 6.8-10.5 6.7zm.3-13.7c-1 0-2 .6-2.4 1.5-.3.6-.3 1.3 0 2 .3.6.7 1.1 1.4 1.4 1.3.6 2.8 0 3.4-1.3.3-.6.3-1.3 0-2-.3-.6-.7-1.1-1.4-1.4-.4-.1-.7-.2-1-.2zm72.6 3.4c-6.6-.2-11.8-5.7-11.7-12.3.2-6.6 5.7-11.8 12.3-11.7 6.6.2 11.8 5.7 11.7 12.3-.2 6.7-5.7 11.9-12.3 11.7zm.4-15.3c-1.9 0-3.5 1.5-3.5 3.3 0 1.9 1.5 3.5 3.3 3.5s3.5-1.5 3.5-3.3c.1-1.9-1.4-3.5-3.3-3.5zm33.3-35.2c-10.4-.2-18.6-8.9-18.4-19.3s8.9-18.6 19.3-18.4 18.6 8.9 18.4 19.3-8.9 18.7-19.3 18.4zm.7-29c-5.7-.1-10.4 4.4-10.5 10-.1 5.7 4.4 10.4 10 10.5 5.7.1 10.4-4.4 10.5-10 .2-5.7-4.3-10.4-10-10.5zm-56.2 133.8c-7.5-.2-13.5-6.5-13.4-14 .2-7.5 6.5-13.5 14-13.4 7.5.2 13.5 6.5 13.4 14-.2 7.5-6.5 13.5-14 13.4zm.4-18.8c-2.8-.1-5.2 2.2-5.3 5-.1 2.8 2.2 5.2 5 5.3 2.8.1 5.2-2.2 5.3-5s-2.1-5.3-5-5.3zm-31.9-59c-17.4-.4-31.3-14.9-30.9-32.4.4-17.4 15-31.2 32.4-30.8 17.4.4 31.3 14.9 30.9 32.4s-15 31.2-32.4 30.8zm1.3-54.7c-12.7-.3-23.3 9.8-23.6 22.5-.3 12.7 9.8 23.3 22.5 23.6 12.7.3 23.3-9.8 23.6-22.5.3-12.7-9.8-23.3-22.5-23.6z"/><path transform="rotate(-34.661 75.327 55.174)" class="st12" d="M71 43.5h8.6v23.3H71z"/><path transform="rotate(-67.381 110.554 48.31)" class="st12" d="M94 44h33v8.6H94z"/><path transform="rotate(-70.202 46.701 71.595)" class="st12" d="M42.4 47.3H51V96h-8.6z"/><path transform="rotate(-38.19 52.402 119.628)" class="st12" d="M26.9 115.4h51v8.6h-51z"/><path transform="rotate(-17.56 114.233 145.054)" class="st12" d="M110 113.4h8.6v63.3H110z"/><path transform="rotate(-56.631 128.588 117.175)" class="st12" d="M124.3 101h8.6v32.3h-8.6z"/><path transform="rotate(-9.521 144.863 80.784)" class="st12" d="M122.2 76.5h45.3v8.6h-45.3z"/><path transform="rotate(-71.53 82.2 125.472)" class="st12" d="M70.6 121.2h23.3v8.6H70.6z"/></g></svg>