<svg xmlns="http://www.w3.org/2000/svg" viewBox="0 0 200.9 200"><style>.st0{fill:none;stroke:#494f54;stroke-width:.25;stroke-miterlimit:10}.st1{opacity:.59;fill:url(#SVGID_1_)}.st2{opacity:.71}.st2,.st3{fill:#393c40}.st4{fill:url(#SVGID_2_)}.st4,.st5,.st6{opacity:.59}.st5{fill:url(#SVGID_3_)}.st6{fill:url(#SVGID_4_)}.st7{fill:url(#SVGID_5_)}.st8{fill:none;stroke:#4cabd7;stroke-linecap:round;stroke-miterlimit:10}.st9{stroke-width:.5}.st10{fill:none;stroke:#494f54}.st10,.st11,.st9{stroke-miterlimit:10}.st9{fill:none;stroke:#494f54}.st11{opacity:.49;fill:#fff;stroke:#000}.st12{fill:#4cabd7}.st13{fill:#447f93}.st14{opacity:.59;fill:url(#SVGID_6_)}.st15,.st16{opacity:.59;fill:url(#SVGID_7_)}.st16{fill:url(#SVGID_8_)}.st17,.st18{opacity:.59;fill:#a2a1a3}.st18{fill:#696b70}.st19{fill:url(#SVGID_9_)}.st20{opacity:.59;fill:url(#SVGID_10_)}.st21,.st22{opacity:.59;fill:url(#SVGID_11_)}.st22{fill:url(#SVGID_12_)}.st23{fill:url(#SVGID_13_)}.st24{opacity:.59;fill:url(#SVGID_14_)}.st25,.st26{opacity:.59;fill:url(#SVGID_15_)}.st26{fill:url(#SVGID_16_)}.st27{fill:url(#SVGID_17_)}.st28{opacity:.59;fill:url(#SVGID_18_)}.st29,.st30{opacity:.59;fill:url(#SVGID_19_)}.st30{fill:url(#SVGID_20_)}.st31{fill:url(#SVGID_21_)}.st32{opacity:.71;clip-path:url(#SVGID_25_);fill:#393c40}.st33{fill:none;stroke:#fff;stroke-miterlimit:10}.st33,.st34{clip-path:url(#SVGID_25_)}.st35{fill:none;stroke:#fff;stroke-width:.75;stroke-miterlimit:10}.st36{fill:#fff}.st37,.st38{clip-path:url(#SVGID_25_);fill:#393c40}.st38{opacity:.71;clip-path:url(#SVGID_31_)}.st39{fill:none;stroke:#fff;stroke-miterlimit:10}.st39,.st40,.st41{clip-path:url(#SVGID_31_)}.st41,.st42{fill:#393c40}.st42{opacity:.71;clip-path:url(#SVGID_37_)}.st43{fill:none;stroke:#fff;stroke-miterlimit:10}.st43,.st44,.st45{clip-path:url(#SVGID_37_)}.st45,.st46{fill:#393c40}.st46{opacity:.71;clip-path:url(#SVGID_43_)}.st47{fill:none;stroke:#fff;stroke-miterlimit:10}.st47,.st48,.st49{clip-path:url(#SVGID_43_)}.st49{fill:#393c40}</style><g id="Text"><path class="st12" d="M156.2 70.8c-9.6 0-17.4-7.8-17.4-17.4S146.7 36 156.2 36c9.6 0 17.4 7.8 17.4 17.4s-7.8 17.4-17.4 17.4zm0-30.3c-7.1 0-12.9 5.8-12.9 12.9s5.8 12.9 12.9 12.9c7.1 0 12.9-5.8 12.9-12.9s-5.7-12.9-12.9-12.9z"/><path class="st12" d="M165.7 95.4h-18.1c-1 0-1.8-.6-2.1-1.5l-3-9.1-2.4-1.5-8.8 3.7c-.9.4-2 .1-2.6-.6l-11.5-14c-.6-.7-.7-1.8-.2-2.6l5.4-8.5v-2.2l-8.7-5.1c-.8-.5-1.3-1.5-1-2.4l4.1-17.2c.2-.9 1-1.6 2-1.7l9.7-.7 1.2-1.7-2.4-11.1c-.2-1 .3-2 1.2-2.5l16-8c.9-.4 1.9-.3 2.6.4l8.1 8h3.1l8-8c.7-.7 1.8-.9 2.7-.4l14.3 8c.7.4 1.2 1.2 1.1 2.1l-.7 10.3 2 2 9 .8c1 .1 1.8.8 2 1.7l4.1 18.1c.2.9-.2 1.8-.9 2.3l-8.9 5.9v1.4l5.4 8.5c.5.8.5 1.9-.2 2.6l-11.5 14c-.6.8-1.7 1-2.6.6l-8.8-3.7-2.4 1.5-3 9.1c-.3.9-1.2 1.5-2.2 1.5zm-16.4-4.5h14.9l2.8-8.3c.2-.5.5-.9 1-1.2l4.1-2.5c.6-.4 1.4-.4 2-.1l8.3 3.5 9.4-11.4-4.9-7.7c-.2-.4-.3-.8-.3-1.2v-3.3c0-.7.4-1.4 1-1.9l8.6-5.7-3.4-15-8.2-.7c-.5 0-1-.3-1.4-.6l-3.3-3.3c-.5-.5-.7-1.1-.6-1.7l.7-9.9-11.6-6.5-7.5 7.5c-.4.4-1 .7-1.6.7h-4.9c-.6 0-1.2-.2-1.6-.6l-7.6-7.5-13.2 6.4 2.2 10.4c.1.6 0 1.3-.4 1.8l-2.5 3.3c-.4.5-1 .8-1.6.9l-9.1.7-3.2 14 8.4 4.9c.7.4 1.1 1.1 1.1 1.9V62c0 .4-.1.8-.3 1.2l-4.9 7.7 9.4 11.4 8.3-3.5c.7-.3 1.4-.2 2 .1l4.1 2.5c.5.3.8.7 1 1.2l2.8 8.3zm-82.1 62.2c-14.8 0-26.8-12-26.8-26.8s12-26.8 26.8-26.8 26.8 12 26.8 26.8-12 26.8-26.8 26.8zm0-46.7c-11 0-19.9 8.9-19.9 19.9s8.9 19.9 19.9 19.9 19.9-8.9 19.9-19.9-8.9-19.9-19.9-19.9z"/><path class="st12" d="M81.9 190.9H54.1c-1.5 0-2.8-.9-3.3-2.3l-4.7-14-3.7-2.2-13.6 5.6c-1.4.6-3 .2-4-1L7.2 155.6c-.9-1.1-1-2.8-.2-4l8.3-13.1v-3.4l-13.5-7.9c-1.3-.8-2-2.3-1.6-3.8L6.5 97c.3-1.5 1.6-2.5 3.1-2.6l14.9-1.1 1.9-2.6-3.7-17.1c-.3-1.5.4-3.1 1.8-3.8l24.7-12.4c1.3-.7 2.9-.4 4 .6l12.4 12.3h4.7L82.6 58c1.1-1.1 2.8-1.3 4.1-.6l22 12.4c1.2.6 1.8 1.9 1.7 3.2l-1 15.9 3.1 3.1 13.9 1.2c1.5.1 2.7 1.2 3.1 2.7l6.3 27.8c.3 1.4-.3 2.8-1.4 3.6l-13.6 9.1v2.2l8.3 13.1c.8 1.3.7 2.9-.2 4l-17.7 21.5c-1 1.2-2.6 1.6-4 1l-13.6-5.7-3.7 2.2-4.7 14c-.5 1.3-1.9 2.2-3.3 2.2zm-25.4-6.8h22.9l4.3-12.8c.3-.8.8-1.4 1.5-1.9l6.3-3.8c.9-.6 2.1-.6 3.1-.2l12.8 5.3 14.5-17.6-7.5-11.8c-.3-.5-.5-1.2-.5-1.8v-5.1c0-1.1.6-2.2 1.5-2.9l13.2-8.8-5.2-23.1-12.7-1.1c-.8-.1-1.6-.4-2.1-1l-5.1-5.1c-.7-.7-1.1-1.7-1-2.7l1-15.3-17.8-10-11.5 11.8c-.6.6-1.5 1-2.4 1h-7.6c-.9 0-1.8-.4-2.4-1L50.1 64.6l-20.2 10 3.4 16.1c.2 1 0 2-.6 2.8l-3.7 5c-.6.8-1.5 1.3-2.5 1.4L12.6 101l-5.2 21.6 13 7.6c1.1.6 1.7 1.7 1.7 3v6.3c0 .7-.2 1.3-.5 1.8L14 153.1l14.5 17.6 12.8-5.3c1-.4 2.2-.3 3.1.2l6.3 3.8c.7.4 1.2 1.1 1.5 1.9l4.3 12.8z"/></g></svg>