<?xml version="1.0" encoding="utf-8"?>
<!-- Generator: Adobe Illustrator 16.0.0, SVG Export Plug-In . SVG Version: 6.00 Build 0)  -->
<!DOCTYPE svg PUBLIC "-//W3C//DTD SVG 1.1//EN" "http://www.w3.org/Graphics/SVG/1.1/DTD/svg11.dtd">
<svg version="1.1" id="Layer_1" xmlns="http://www.w3.org/2000/svg" xmlns:xlink="http://www.w3.org/1999/xlink" x="0px" y="0px"
	 width="208.957px" height="166.139px" viewBox="97.25 35.333 208.957 166.139"
	 enable-background="new 97.25 35.333 208.957 166.139" xml:space="preserve">
<!--
<path fill="greenyellow" d="M306.207,169.596v-40.492H256.12c0,0-17.121-0.769-30.154,8.712c-13.032,9.482-44.975,31.778-44.975,31.778
	s-7.411,5.638-2.556,12.302l4.088,5.125c0,0,4.09,3.074,9.199,0c5.111-3.076,23-13.838,23-13.838l1.021,4.1l-20.955,12.813
	c0,0-15.588,10.252-21.977-9.736h-45.486c0,0-13.033-0.258-13.289,11.274s18.911,9.738,18.911,9.738h65.93
	c0,0,7.666,0.513,17.888-6.663c10.224-7.176,31.688-21.525,31.688-21.525s2.556-3.761,18.399-3.589
	C282.697,169.768,306.207,169.596,306.207,169.596z"/>
-->
<g>
	<g>
		<path fill="black" d="M162.896,152.857
			c-7.831-0.008-15.661-0.008-23.491,0c-2.281,0.002-3.954,1.594-4.012,3.772c-0.061,2.3,1.495,4.013,3.806,4.086
			c0.642,0.021,0.853,0.293,1.158,0.802c0.772,1.291,1.59,2.577,2.565,3.715c1.632,1.906,3.932,2.703,6.26,3.388h3.938
			c0.061-0.052,0.116-0.134,0.186-0.147c4.145-0.89,7.045-3.285,8.781-7.154c0.129-0.287,0.658-0.53,1.019-0.558
			c2.313-0.172,3.852-1.812,3.798-4.13C166.853,154.459,165.172,152.859,162.896,152.857z M144.728,60.21
			c-18.282,3.883-29.894,23.026-23.169,41.187c1.999,5.4,4.635,10.569,7.089,15.792c3.176,6.755,6.528,13.438,6.755,21.188h31.484
			c0.051-0.734,0.087-1.391,0.143-2.041c0.47-5.44,2.418-10.433,4.715-15.306c2.479-5.262,5.124-10.448,7.52-15.748
			c2.566-5.678,3.932-11.588,3.208-17.922C180.389,69.167,162.636,56.406,144.728,60.21z M162.867,141.71
			c-7.794-0.007-15.589-0.005-23.382,0c-2.422,0.002-4.095,1.626-4.093,3.944c0.002,2.311,1.684,3.931,4.104,3.936
			c3.856,0.006,7.712,0.001,11.568,0.001c3.938,0,7.876,0.007,11.814-0.002c2.337-0.006,4.008-1.631,4.025-3.883
			C166.921,143.365,165.268,141.713,162.867,141.71z M155.385,37.655h-8.478v14.703h8.478V37.655z M183.65,114.516
			c2.139,1.236,9.906,5.854,12.131,7.139c1.361-2.368,2.639-4.59,3.966-6.899c-2.438-1.407-10.419-6.146-12.82-7.532
			C185.826,109.671,184.759,112.048,183.65,114.516z M101.99,114.196c1.349,2.342,2.633,4.568,3.969,6.889
			c2.172-1.252,10.504-5.299,12.639-6.53c-1.106-2.487-2.164-4.865-3.256-7.318C112.933,108.633,104.388,112.808,101.99,114.196z
			 M187.609,83.459v7.916h15.826v-7.916H187.609z M114.699,83.459H98.873v7.916h15.826V83.459z M122.568,62.975
			c1.963-1.752,3.846-3.433,5.826-5.2c-1.824-2.032-8.555-8.55-10.386-10.592c-1.771,1.95-3.49,3.841-5.287,5.818
			C114.345,54.806,120.916,61.14,122.568,62.975z M187.044,53.103c-1.813-1.982-3.55-3.877-5.34-5.832
			c-1.851,2.046-8.65,8.579-10.491,10.616c1.999,1.771,3.902,3.456,5.884,5.211C178.766,61.26,185.402,54.911,187.044,53.103z"/>
	</g>
</g>
</svg>
