<svg xmlns="http://www.w3.org/2000/svg" xmlns:xlink="http://www.w3.org/1999/xlink" version="1.1" width="105" height="131" enable-background="new 97.25 35.333 208.957 166.139" xml:space="preserve" style=""><rect id="backgroundrect" width="100%" height="100%" x="0" y="0" fill="none" stroke="none"/>
<!--
<path fill="greenyellow" d="M306.207,169.596v-40.492H256.12c0,0-17.121-0.769-30.154,8.712c-13.032,9.482-44.975,31.778-44.975,31.778
	s-7.411,5.638-2.556,12.302l4.088,5.125c0,0,4.09,3.074,9.199,0c5.111-3.076,23-13.838,23-13.838l1.021,4.1l-20.955,12.813
	c0,0-15.588,10.252-21.977-9.736h-45.486c0,0-13.033-0.258-13.289,11.274s18.911,9.738,18.911,9.738h65.93
	c0,0,7.666,0.513,17.888-6.663c10.224-7.176,31.688-21.525,31.688-21.525s2.556-3.761,18.399-3.589
	C282.697,169.768,306.207,169.596,306.207,169.596z"/>
-->

<g class="currentLayer" style=""><title>Layer 1</title><g id="svg_1" class="" fill="#ff7619" fill-opacity="1">
	<g id="svg_2" fill="#ff7619" fill-opacity="1">
		<path fill="#ff7619" d="M64.02300000000017,115.20199999999991 c-7.831,-0.008000000000000004 -15.661,-0.008000000000000004 -23.491,0 c-2.281,0.002000000000000001 -3.954,1.594 -4.012,3.7720000000000002 c-0.06100000000000002,2.3 1.495,4.013 3.806,4.086 c0.6420000000000002,0.021000000000000008 0.8530000000000002,0.2930000000000001 1.158,0.802 c0.772,1.291 1.59,2.577 2.565,3.715 c1.6320000000000001,1.9060000000000001 3.932,2.7030000000000003 6.26,3.388 h3.938 c0.06100000000000002,-0.05200000000000002 0.11600000000000003,-0.134 0.18600000000000005,-0.14700000000000005 c4.145,-0.8900000000000002 7.045,-3.285 8.781,-7.154 c0.129,-0.2870000000000001 0.6580000000000003,-0.53 1.019,-0.558 c2.313,-0.17200000000000001 3.8520000000000003,-1.812 3.798,-4.13 C67.98000000000019,116.80399999999992 66.29900000000018,115.20399999999992 64.02300000000017,115.20199999999991 zM45.85500000000019,22.554999999999914 c-18.282,3.883 -29.894,23.026 -23.169,41.187 c1.999,5.4 4.635,10.569 7.089,15.792 c3.176,6.755 6.5280000000000005,13.438 6.755,21.188 h31.484 c0.05100000000000002,-0.7340000000000002 0.08700000000000004,-1.391 0.14300000000000004,-2.041 c0.4700000000000001,-5.44 2.418,-10.433 4.715,-15.306000000000001 c2.479,-5.2620000000000005 5.124,-10.448 7.52,-15.748 c2.566,-5.678 3.932,-11.588000000000001 3.208,-17.922 C81.51600000000019,31.511999999999915 63.763000000000176,18.750999999999912 45.85500000000019,22.554999999999914 zM63.99400000000017,104.05499999999992 c-7.7940000000000005,-0.007000000000000004 -15.589,-0.005000000000000002 -23.382,0 c-2.422,0.002000000000000001 -4.095,1.6260000000000003 -4.093,3.944 c0.002000000000000001,2.311 1.6840000000000004,3.931 4.104,3.936 c3.856,0.006000000000000004 7.712,0.0010000000000000005 11.568,0.0010000000000000005 c3.938,0 7.876,0.007000000000000004 11.814,-0.002000000000000001 c2.337,-0.006000000000000004 4.008,-1.6310000000000002 4.025,-3.883 C68.04800000000017,105.70999999999992 66.39500000000018,104.05799999999991 63.99400000000017,104.05499999999992 zM56.51200000000017,-8.526512765593731e-14 h-8.478 v14.703 h8.478 V-8.526512765593731e-14 zM84.77700000000019,76.86099999999992 c2.1390000000000002,1.236 9.906,5.854 12.131,7.139 c1.361,-2.368 2.6390000000000002,-4.59 3.966,-6.899 c-2.438,-1.407 -10.419,-6.146 -12.82,-7.532 C86.95300000000017,72.01599999999992 85.88600000000017,74.39299999999992 84.77700000000019,76.86099999999992 zM3.117000000000175,76.54099999999991 c1.3490000000000002,2.342 2.633,4.568 3.9690000000000003,6.889 c2.172,-1.252 10.504,-5.299 12.639,-6.53 c-1.106,-2.487 -2.164,-4.865 -3.2560000000000002,-7.318 C14.060000000000187,70.97799999999991 5.515000000000185,75.15299999999992 3.117000000000175,76.54099999999991 zM88.73600000000019,45.80399999999992 v7.916 h15.826 v-7.916 H88.73600000000019 zM15.826000000000178,45.80399999999992 H1.8474111087410957e-13 v7.916 h15.826 V45.80399999999992 zM23.695000000000178,25.319999999999915 c1.963,-1.7520000000000002 3.846,-3.433 5.8260000000000005,-5.2 c-1.824,-2.032 -8.555,-8.55 -10.386,-10.592 c-1.771,1.9500000000000002 -3.49,3.841 -5.287,5.818 C15.472000000000179,17.15099999999991 22.043000000000177,23.484999999999914 23.695000000000178,25.319999999999915 zM88.17100000000019,15.447999999999915 c-1.8130000000000002,-1.982 -3.55,-3.8770000000000002 -5.34,-5.832 c-1.851,2.046 -8.65,8.579 -10.491,10.616 c1.999,1.771 3.902,3.456 5.884,5.211 C79.89300000000017,23.60499999999991 86.52900000000017,17.255999999999915 88.17100000000019,15.447999999999915 z" id="svg_3" fill-opacity="1"/>
	</g>
</g></g></svg>