<svg xmlns="http://www.w3.org/2000/svg" viewBox="0 55 138 140"><style>.st3{fill:#fff;stroke:#fff}</style><g id="Text"><path class="st3" d="M67.2 153.1c-14.8 0-26.8-12-26.8-26.8s12-26.8 26.8-26.8 26.8 12 26.8 26.8-12 26.8-26.8 26.8zm0-46.7c-11 0-19.9 8.9-19.9 19.9s8.9 19.9 19.9 19.9 19.9-8.9 19.9-19.9-8.9-19.9-19.9-19.9z"/><path class="st3" d="M81.9 190.9H54.1c-1.5 0-2.8-.9-3.3-2.3l-4.7-14-3.7-2.2-13.6 5.6c-1.4.6-3 .2-4-1L7.2 155.6c-.9-1.1-1-2.8-.2-4l8.3-13.1v-3.4l-13.5-7.9c-1.3-.8-2-2.3-1.6-3.8L6.5 97c.3-1.5 1.6-2.5 3.1-2.6l14.9-1.1 1.9-2.6-3.7-17.1c-.3-1.5.4-3.1 1.8-3.8l24.7-12.4c1.3-.7 2.9-.4 4 .6l12.4 12.3h4.7L82.6 58c1.1-1.1 2.8-1.3 4.1-.6l22 12.4c1.2.6 1.8 1.9 1.7 3.2l-1 15.9 3.1 3.1 13.9 1.2c1.5.1 2.7 1.2 3.1 2.7l6.3 27.8c.3 1.4-.3 2.8-1.4 3.6l-13.6 9.1v2.2l8.3 13.1c.8 1.3.7 2.9-.2 4l-17.7 21.5c-1 1.2-2.6 1.6-4 1l-13.6-5.7-3.7 2.2-4.7 14c-.5 1.3-1.9 2.2-3.3 2.2zm-25.4-6.8h22.9l4.3-12.8c.3-.8.8-1.4 1.5-1.9l6.3-3.8c.9-.6 2.1-.6 3.1-.2l12.8 5.3 14.5-17.6-7.5-11.8c-.3-.5-.5-1.2-.5-1.8v-5.1c0-1.1.6-2.2 1.5-2.9l13.2-8.8-5.2-23.1-12.7-1.1c-.8-.1-1.6-.4-2.1-1l-5.1-5.1c-.7-.7-1.1-1.7-1-2.7l1-15.3-17.8-10-11.5 11.8c-.6.6-1.5 1-2.4 1h-7.6c-.9 0-1.8-.4-2.4-1L50.1 64.6l-20.2 10 3.4 16.1c.2 1 0 2-.6 2.8l-3.7 5c-.6.8-1.5 1.3-2.5 1.4L12.6 101l-5.2 21.6 13 7.6c1.1.6 1.7 1.7 1.7 3v6.3c0 .7-.2 1.3-.5 1.8L14 153.1l14.5 17.6 12.8-5.3c1-.4 2.2-.3 3.1.2l6.3 3.8c.7.4 1.2 1.1 1.5 1.9l4.3 12.8z"/></g></svg>