<svg xmlns="http://www.w3.org/2000/svg" stroke="rgb(5, 104, 174)" stroke-width="0.5" viewBox="0 0 36 36" >

	<!-- internet-->
	<svg viewBox="40 3 1 165" width="170%" height="119%">
      <path d="M31.748 18.234c.258.06.451.239.541.489a.753.753 0 0 1-.146.719l-1.316 1.516 3.65 3.065a.725.725 0 0 1 .26.514.723.723 0 0 1-.174.54l-2.615 3.033a.79.79 0 0 1-.294.215l-.218.041a.737.737 0 0 1-.537-.178l-3.648-3.064-1.309 1.515a.733.733 0 0 1-1.086.038.752.752 0 0 1-.167-.244l-2.695-8.581a.73.73 0 0 1-.043-.45.748.748 0 0 1 .897-.554l8.9 1.386zm-2.752 10.315l-.057.062-.066.079-.04.033A15.203 15.203 0 0 1 18 33.251a15.204 15.204 0 0 1-10.833-4.529l-.04-.032-.066-.079C4.396 25.863 2.75 22.121 2.75 18s1.646-7.863 4.311-10.61l.066-.079.04-.032C9.933 4.485 13.767 2.75 18 2.75s8.067 1.735 10.833 4.529l.04.032.066.079a15.195 15.195 0 0 1 4.297 10.058 2.23 2.23 0 0 0-1.15-.675l-.053-.012-.054-.009-.814-.127a13.187 13.187 0 0 0-3.05-7.17 15.208 15.208 0 0 1-2.76 1.959c.34 1.364.569 2.848.684 4.412l-2.028-.316a24.171 24.171 0 0 0-.498-3.237 15.16 15.16 0 0 1-4.513.991V17h1.507l-.017.051-.005.021-.004.021c-.089.425-.054.87.098 1.266l.202.641H19v3.736c1.068.069 2.112.255 3.123.538l.738 2.35A13.14 13.14 0 0 0 19 24.741v6.308c1.495-.586 2.945-2.449 3.919-5.241l.337 1.072.018.059.023.057c.108.265.271.51.485.729.117.117.244.214.376.302a13.515 13.515 0 0 1-1.324 2.306 13.263 13.263 0 0 0 3.875-2.36l-.012-.01c.14-.103.272-.22.387-.356l.332-.385 1.58 1.327zM22.835 5.667c.756 1.036 1.41 2.313 1.93 3.778a13.322 13.322 0 0 0 1.945-1.417 13.288 13.288 0 0 0-3.875-2.361zM19 11.259a13.166 13.166 0 0 0 3.971-.922c-.974-2.874-2.45-4.789-3.971-5.386v6.308zM9.29 8.028a13.22 13.22 0 0 0 1.944 1.417c.521-1.465 1.174-2.742 1.93-3.778A13.296 13.296 0 0 0 9.29 8.028zM4.792 17h5.102c.066-2 .327-3.884.751-5.586a15.327 15.327 0 0 1-2.76-1.959A13.192 13.192 0 0 0 4.792 17zm3.093 9.545a15.243 15.243 0 0 1 2.76-1.959C10.221 22.884 9.959 21 9.894 19H4.792a13.186 13.186 0 0 0 3.093 7.545zm5.28 3.788c-.756-1.036-1.41-2.313-1.93-3.778-.685.409-1.335.883-1.945 1.417a13.288 13.288 0 0 0 3.875 2.361zM17 24.741a13.137 13.137 0 0 0-3.971.923c.974 2.873 2.45 4.789 3.971 5.385v-6.308zM17 19h-5.106c.059 1.722.269 3.308.593 4.727A15.16 15.16 0 0 1 17 22.736V19zm0-5.736a15.19 15.19 0 0 1-4.513-.991A25.186 25.186 0 0 0 11.894 17H17v-3.736zm0-8.313c-1.521.597-2.997 2.512-3.971 5.385 1.256.508 2.592.82 3.971.922V4.951z" fill="#0568ae"></path>
    </svg>

</svg>