<svg xmlns="http://www.w3.org/2000/svg" viewBox="0 0 36 36">
    <path d="M32.495 9.597a3.663 3.663 0 0 0-3.657-3.656H7.272a3.66 3.66 0 0 0-3.658 3.656v16.834c.002 1.984 1.713 3.66 3.734 3.66h21.491a3.663 3.663 0 0 0 3.657-3.661l-.001-16.833zm-3.656 19.745H7.348c-1.616 0-2.983-1.333-2.984-2.911V9.597a2.91 2.91 0 0 1 2.908-2.906h21.566a2.913 2.913 0 0 1 2.907 2.906l.001 16.834a2.912 2.912 0 0 1-2.907 2.911zm.379-18.735v10.636c0 .943-.761 1.71-1.695 1.71h-1.448v.643c0 .622-.504 1.128-1.123 1.128h-2.336V26c0 .622-.504 1.129-1.123 1.129h-6.826a1.138 1.138 0 0 1-1.138-1.127v-1.278h-2.323a1.129 1.129 0 0 1-1.133-1.118v-.652H8.665c-.96 0-1.774-.783-1.776-1.709v-4.928a.375.375 0 0 1 .75 0v4.927c.001.511.48.96 1.026.96h1.782c.207 0 .375.168.375.375v1.026c0 .207.168.369.383.369h2.698c.207 0 .375.168.375.375V26a.39.39 0 0 0 .388.379h6.826c.205 0 .373-.17.373-.379v-1.651c0-.207.168-.375.375-.375h2.711c.205 0 .373-.17.373-.378v-1.018c0-.207.168-.375.375-.375h1.823a.954.954 0 0 0 .945-.96V10.608a.963.963 0 0 0-.96-.957H7.815a.375.375 0 0 1 0-.75h19.692c.941 0 1.708.766 1.711 1.706zm-4.36 5.409v-3.663a.375.375 0 0 1 .75 0v3.663a.375.375 0 0 1-.75 0zm-3.22.375a.375.375 0 0 1-.375-.375v-3.663a.375.375 0 0 1 .75 0v3.663a.375.375 0 0 1-.375.375zm-3.598 0a.375.375 0 0 1-.375-.375v-3.663a.375.375 0 0 1 .75 0v3.663a.375.375 0 0 1-.375.375zm-3.973-.375v-3.663a.375.375 0 0 1 .75 0v3.663a.375.375 0 0 1-.75 0zm-3.22.375a.375.375 0 0 1-.375-.375v-3.663a.375.375 0 0 1 .75 0v3.663a.375.375 0 0 1-.375.375z" fill="#0568ae"></path>
</svg>
