<svg xmlns="http://www.w3.org/2000/svg" viewBox="0 0 36 36">
    <path d="M28.736 6.49H7.346a3.263 3.263 0 0 0-3.254 3.255l-.001 16.696a3.263 3.263 0 0 0 3.255 3.26H28.66c1.794 0 3.331-1.466 3.335-3.26V9.745a3.263 3.263 0 0 0-3.259-3.255zm.008 14.808c-.002.731-.661 1.324-1.39 1.324h-1.767v1.017a.747.747 0 0 1-.753.739h-2.675v1.637a.76.76 0 0 1-.759.748h-6.767a.744.744 0 0 1-.742-.748v-1.637h-2.69a.747.747 0 0 1-.743-.747v-1.009H8.651a1.315 1.315 0 0 1-1.309-1.324v-10.55a1.326 1.326 0 0 1 1.325-1.321l18.755.001c.729 0 1.323.589 1.323 1.321v10.549zM15.031 11.9l.002 2.043a.988.988 0 0 1-.987.989h-.001a.99.99 0 0 1-.989-.987l-.001-2.043a.99.99 0 0 1 .987-.99h.002a.99.99 0 0 1 .987.988zm4 .001l.001 2.042a.989.989 0 1 1-1.979 0v-2.042a.989.989 0 1 1 1.978 0zm-7.998 0v2.042a.988.988 0 1 1-1.977 0v-2.042a.99.99 0 0 1 1.977 0zm11.995-.001l.002 2.043a.989.989 0 0 1-1.976.002l-.002-2.043a.988.988 0 0 1 .987-.99h.002c.546 0 .986.442.987.988zm4.002.001v2.042a.989.989 0 1 1-1.977 0v-2.042a.988.988 0 1 1 1.977 0z" fill="#0568ae"></path>
</svg>
