<svg xmlns="http://www.w3.org/2000/svg" width="36" height="36" style=""><rect id="backgroundrect" width="100%" height="100%" x="0" y="0" fill="none" stroke="none"/>
    
<g class="currentLayer" style=""><title>Layer 1</title><path d="M30.792,15.531640446424484 v15.457 c0,0.792 -0.6480000000000001,1.44 -1.44,1.44 h-9.488 v-5.483 a0.30600000000000005,0.30600000000000005 0 0 0 -0.30400000000000005,-0.30400000000000005 h-3.122 a0.30400000000000005,0.30400000000000005 0 0 0 -0.30300000000000005,0.30400000000000005 v5.483 H6.648 c-0.792,0 -1.44,-0.6480000000000001 -1.44,-1.44 V15.531640446424484 c0,-0.792 0.6480000000000001,-1.44 1.44,-1.44 h4.18 V4.785640446424484 c0,-0.792 0.6480000000000001,-1.44 1.44,-1.44 h11.466 c0.792,0 1.44,0.6480000000000001 1.44,1.44 v9.306000000000001 h4.18 c0.791,0 1.4380000000000002,0.6480000000000001 1.4380000000000002,1.44 zm-8.274000000000001,-3.733 a0.30500000000000005,0.30500000000000005 0 0 0 -0.30300000000000005,-0.30400000000000005 h-2.818 a0.30500000000000005,0.30500000000000005 0 0 0 -0.30400000000000005,0.30400000000000005 v2.4050000000000002 c0,0.16700000000000004 0.137,0.30400000000000005 0.30400000000000005,0.30400000000000005 h2.818 a0.30500000000000005,0.30500000000000005 0 0 0 0.30300000000000005,-0.30400000000000005 v-2.4050000000000002 zM11.288,21.897640446424486 a0.30600000000000005,0.30600000000000005 0 0 0 -0.30400000000000005,-0.30400000000000005 H8.167 a0.30500000000000005,0.30500000000000005 0 0 0 -0.30400000000000005,0.30400000000000005 v2.4050000000000002 c0,0.16700000000000004 0.136,0.30300000000000005 0.30400000000000005,0.30300000000000005 h2.817 a0.30600000000000005,0.30600000000000005 0 0 0 0.30400000000000005,-0.30300000000000005 V21.897640446424486 zm5.619,-5.05 a0.30400000000000005,0.30400000000000005 0 0 0 -0.30300000000000005,-0.30400000000000005 h-2.819 a0.30500000000000005,0.30500000000000005 0 0 0 -0.30300000000000005,0.30400000000000005 v2.4050000000000002 c0,0.16700000000000004 0.137,0.30400000000000005 0.30300000000000005,0.30400000000000005 h2.819 a0.30400000000000005,0.30400000000000005 0 0 0 0.30300000000000005,-0.30400000000000005 V16.847640446424485 zm-5.619,0 a0.30600000000000005,0.30600000000000005 0 0 0 -0.30400000000000005,-0.30400000000000005 H8.167 a0.30500000000000005,0.30500000000000005 0 0 0 -0.30400000000000005,0.30400000000000005 v2.4050000000000002 c0,0.16700000000000004 0.137,0.30400000000000005 0.30400000000000005,0.30400000000000005 h2.817 a0.30600000000000005,0.30600000000000005 0 0 0 0.30400000000000005,-0.30400000000000005 V16.847640446424485 zm5.619,-5.049 a0.30400000000000005,0.30400000000000005 0 0 0 -0.30300000000000005,-0.30400000000000005 h-2.819 a0.30500000000000005,0.30500000000000005 0 0 0 -0.30300000000000005,0.30400000000000005 v2.4050000000000002 c0,0.16700000000000004 0.137,0.30400000000000005 0.30300000000000005,0.30400000000000005 h2.819 a0.30400000000000005,0.30400000000000005 0 0 0 0.30300000000000005,-0.30400000000000005 v-2.4050000000000002 zm0,-5.049 a0.30300000000000005,0.30300000000000005 0 0 0 -0.30300000000000005,-0.30300000000000005 h-2.819 a0.30500000000000005,0.30500000000000005 0 0 0 -0.30300000000000005,0.30300000000000005 v2.4050000000000002 c0,0.16700000000000004 0.137,0.30400000000000005 0.30300000000000005,0.30400000000000005 h2.819 a0.30400000000000005,0.30400000000000005 0 0 0 0.30300000000000005,-0.30400000000000005 V6.749640446424484 zm5.611,0 a0.30300000000000005,0.30300000000000005 0 0 0 -0.30300000000000005,-0.30300000000000005 h-2.818 a0.30500000000000005,0.30500000000000005 0 0 0 -0.30400000000000005,0.30300000000000005 v2.4050000000000002 c0,0.16700000000000004 0.137,0.30400000000000005 0.30400000000000005,0.30400000000000005 h2.818 a0.30400000000000005,0.30400000000000005 0 0 0 0.30300000000000005,-0.30400000000000005 V6.749640446424484 z" fill="#899a9a" id="svg_1" class="selected" fill-opacity="1" stroke="none"/></g></svg>