<svg xmlns="http://www.w3.org/2000/svg" width="36" height="36"><rect id="backgroundrect" width="100%" height="100%" x="0" y="0" fill="none" stroke="none"/>
    
<g class="currentLayer" style=""><title>Layer 1</title><path d="M30.792 15.644v15.457c0 .792-.648 1.44-1.44 1.44h-9.488v-5.483a.306.306 0 0 0-.304-.304h-3.122a.304.304 0 0 0-.303.304v5.483H6.648c-.792 0-1.44-.648-1.44-1.44V15.644c0-.792.648-1.44 1.44-1.44h4.18V4.898c0-.792.648-1.44 1.44-1.44h11.466c.792 0 1.44.648 1.44 1.44v9.306h4.18c.791 0 1.438.648 1.438 1.44zm-8.274-3.733a.305.305 0 0 0-.303-.304h-2.818a.305.305 0 0 0-.304.304v2.405c0 .167.137.304.304.304h2.818a.305.305 0 0 0 .303-.304v-2.405zM11.288 22.01a.306.306 0 0 0-.304-.304H8.167a.305.305 0 0 0-.304.304v2.405c0 .167.136.303.304.303h2.817a.306.306 0 0 0 .304-.303V22.01zm5.619-5.05a.304.304 0 0 0-.303-.304h-2.819a.305.305 0 0 0-.303.304v2.405c0 .167.137.304.303.304h2.819a.304.304 0 0 0 .303-.304V16.96zm-5.619 0a.306.306 0 0 0-.304-.304H8.167a.305.305 0 0 0-.304.304v2.405c0 .167.137.304.304.304h2.817a.306.306 0 0 0 .304-.304V16.96zm5.619-5.049a.304.304 0 0 0-.303-.304h-2.819a.305.305 0 0 0-.303.304v2.405c0 .167.137.304.303.304h2.819a.304.304 0 0 0 .303-.304v-2.405zm0-5.049a.303.303 0 0 0-.303-.303h-2.819a.305.305 0 0 0-.303.303v2.405c0 .167.137.304.303.304h2.819a.304.304 0 0 0 .303-.304V6.862zm5.611 0a.303.303 0 0 0-.303-.303h-2.818a.305.305 0 0 0-.304.303v2.405c0 .167.137.304.304.304h2.818a.304.304 0 0 0 .303-.304V6.862z" fill="#03426e" id="svg_1" class="selected" fill-opacity="1"/></g></svg>